<?xml version="1.0" encoding="UTF-8"?>
<svg version="1.1" xmlns="http://www.w3.org/2000/svg" width="424" height="140">
<path d="M0 0 C139.92 0 279.84 0 424 0 C424 46.2 424 92.4 424 140 C284.08 140 144.16 140 0 140 C0 93.8 0 47.6 0 0 Z " fill="#FDFDFC" transform="translate(0,0)"/>
<path d="M0 0 C1.921875 1.08984375 1.921875 1.08984375 4.671875 3.08984375 C4.671875 1.76984375 4.671875 0.44984375 4.671875 -0.91015625 C7.971875 -0.91015625 11.271875 -0.91015625 14.671875 -0.91015625 C13.16888505 10.85667297 10.95472894 22.45393772 8.671875 34.08984375 C5.371875 34.08984375 2.071875 34.08984375 -1.328125 34.08984375 C-1.658125 33.42984375 -1.988125 32.76984375 -2.328125 32.08984375 C-2.87726563 32.41210938 -3.42640625 32.734375 -3.9921875 33.06640625 C-8.27015138 34.94069812 -12.75426841 34.62014596 -17.328125 34.08984375 C-21.04691555 32.36326242 -22.76555014 30.83994357 -25.203125 27.58984375 C-27.08091044 21.74784461 -27.61010684 15.55974126 -25.44921875 9.7109375 C-19.94093082 0.13051591 -10.83324614 -4.23514488 0 0 Z " fill="#F05C25" transform="translate(169.328125,44.91015625)"/>
<path d="M0 0 C3.30180503 2.45518836 5.59744189 5.13238379 7.4375 8.8125 C7.4375 12.1125 7.4375 15.4125 7.4375 18.8125 C-1.4725 18.8125 -10.3825 18.8125 -19.5625 18.8125 C-18.5725 20.7925 -17.5825 22.7725 -16.5625 24.8125 C-11.11556686 24.90938221 -5.92345333 24.94112175 -0.5625 23.8125 C0.4275 25.7925 1.4175 27.7725 2.4375 29.8125 C-2.18922084 33.45604266 -5.62538659 34.44641985 -11.5625 34.3125 C-12.24828125 34.32796875 -12.9340625 34.3434375 -13.640625 34.359375 C-18.7410112 34.32044075 -21.62716962 32.97135264 -25.5625 29.8125 C-29.65836704 25.15168578 -29.97789402 20.68282746 -29.8984375 14.66796875 C-29.26162213 9.25503808 -26.74388113 5.9218544 -22.90625 2.2109375 C-16.2656308 -2.82580333 -7.65145948 -2.55048649 0 0 Z " fill="#24B250" transform="translate(296.5625,45.1875)"/>
<path d="M0 0 C3.63 0 7.26 0 11 0 C10.7834375 1.0621875 10.566875 2.124375 10.34375 3.21875 C10.06210422 4.64575528 9.78087662 6.07284313 9.5 7.5 C9.35691406 8.19609375 9.21382813 8.8921875 9.06640625 9.609375 C8.11721463 14.4909319 7.69712075 19.02412655 8 24 C9.86963998 26.26298437 9.86963998 26.26298437 12.8125 26.4375 C17.18857007 25.83686293 18.26566196 24.4474534 21 21 C22.11450206 17.82856232 22.69139962 14.62170849 23.25 11.3125 C23.56577984 9.5999037 23.88339942 7.8876453 24.203125 6.17578125 C24.33364258 5.42208252 24.46416016 4.66838379 24.59863281 3.8918457 C25 2 25 2 26 0 C29.3 0 32.6 0 36 0 C34.49701005 11.76682922 32.28285394 23.36409397 30 35 C26.7 35 23.4 35 20 35 C19.67 34.34 19.34 33.68 19 33 C18.01 33.66 17.02 34.32 16 35 C13.0390625 35.3359375 13.0390625 35.3359375 9.625 35.375 C7.94277344 35.41753906 7.94277344 35.41753906 6.2265625 35.4609375 C2.36503504 34.90929072 0.75872449 33.69853414 -2 31 C-6.24938467 22.50123066 -2.06273175 8.76660992 0 0 Z " fill="#24B150" transform="translate(341,44)"/>
<path d="M0 0 C3.3 0 6.6 0 10 0 C10.33 0.66 10.66 1.32 11 2 C11.54785156 1.67644531 12.09570312 1.35289063 12.66015625 1.01953125 C16.91798701 -0.83571721 21.44453361 -0.43997818 26 0 C29.70162323 1.54234301 32.19501491 3.39002982 34 7 C34.97905274 13.30349025 33.37660779 19.12201747 31.734375 25.1796875 C30.88124113 28.45608458 30.381742 31.64067041 30 35 C26.7 35 23.4 35 20 35 C20.14235457 33.27054347 20.28904382 31.54144346 20.4375 29.8125 C20.51871094 28.84957031 20.59992188 27.88664062 20.68359375 26.89453125 C21 24 21 24 21.5234375 21.3984375 C22.23287999 17.82796463 22.17905516 14.64078818 22 11 C20.13036002 8.73701563 20.13036002 8.73701563 17.1875 8.5625 C13.90932954 8.77363597 13.90932954 8.77363597 11.3125 10.8125 C8.09089047 15.25309692 7.13032935 19.68745207 6 25 C5.79375 25.969375 5.5875 26.93875 5.375 27.9375 C4.89437603 30.28721716 4.44405397 32.64309817 4 35 C0.7 35 -2.6 35 -6 35 C-5.29030575 27.37282622 -3.92147041 19.94880122 -2.4375 12.4375 C-2.20353516 11.23802734 -1.96957031 10.03855469 -1.72851562 8.80273438 C-1.15556853 5.8678421 -0.57932273 2.93363922 0 0 Z " fill="#F05D26" transform="translate(193,44)"/>
<path d="M0 0 C0.76828125 -0.01224609 1.5365625 -0.02449219 2.328125 -0.03710938 C9.30966361 -0.05522755 9.30966361 -0.05522755 12.625 2.1875 C11.965 4.1675 11.305 6.1475 10.625 8.1875 C7.33803767 8.98703138 5.91476808 9.28408936 2.625 8.1875 C1.23060336 8.12084624 -0.16669875 8.10211801 -1.5625 8.125 C-2.820625 8.145625 -4.07875 8.16625 -5.375 8.1875 C-5.705 9.5075 -6.035 10.8275 -6.375 12.1875 C-5.03695312 12.55101562 -5.03695312 12.55101562 -3.671875 12.921875 C-2.50140625 13.25703125 -1.3309375 13.5921875 -0.125 13.9375 C1.03515625 14.26234375 2.1953125 14.5871875 3.390625 14.921875 C6.778458 16.24754878 8.46610261 17.27883776 10.625 20.1875 C11.18193558 23.36430604 10.6698235 26.15047418 9.625 29.1875 C7.41430907 31.91081491 4.76362075 33.61818963 1.625 35.1875 C-1.32532632 35.33894814 -4.23624618 35.41892405 -7.1875 35.4375 C-7.99509766 35.458125 -8.80269531 35.47875 -9.63476562 35.5 C-14.41033176 35.53128954 -17.44562351 35.21622833 -21.375 32.1875 C-20.5625 29.25 -20.5625 29.25 -19.375 26.1875 C-16.375 25.1875 -16.375 25.1875 -14.25 26.125 C-10.30345288 27.58350654 -6.54600905 27.53986422 -2.375 27.1875 C-1.715 26.8575 -1.055 26.5275 -0.375 26.1875 C-0.045 25.1975 0.285 24.2075 0.625 23.1875 C-0.09945312 23.08953125 -0.82390625 22.9915625 -1.5703125 22.890625 C-7.49841372 21.97374534 -11.74993898 21.08228823 -16.375 17.1875 C-18.01063211 13.91623579 -18.19471785 10.6940708 -17.375 7.1875 C-12.37369729 1.07334198 -7.61661247 0.00632609 0 0 Z " fill="#24B250" transform="translate(251.375,43.8125)"/>
<path d="M0 0 C0.75925781 -0.00773437 1.51851562 -0.01546875 2.30078125 -0.0234375 C6.16792278 -0.00989235 9.22791354 0.05700588 12.5 2.25 C11.625 7 11.625 7 10.5 9.25 C9.695625 9.085 8.89125 8.92 8.0625 8.75 C0.61848472 7.60624972 0.61848472 7.60624972 -6.5 9.25 C-6.5 10.24 -6.5 11.23 -6.5 12.25 C-5.60796875 12.50394531 -4.7159375 12.75789063 -3.796875 13.01953125 C-2.04117188 13.53580078 -2.04117188 13.53580078 -0.25 14.0625 C1.49023438 14.56716797 1.49023438 14.56716797 3.265625 15.08203125 C6.26894709 16.16656423 8.25211769 17.00211769 10.5 19.25 C10.98226398 23.52148098 10.96215206 26.09461984 9.375 30.0625 C6.63933252 33.25411206 3.62509969 34.95847991 -0.59472656 35.53735352 C-2.92469244 35.65223588 -5.2301021 35.65944066 -7.5625 35.625 C-8.74682617 35.64240234 -8.74682617 35.64240234 -9.95507812 35.66015625 C-14.64593511 35.63656435 -17.63510898 35.18949458 -21.5 32.25 C-19.625 27.5 -19.625 27.5 -18.5 25.25 C-17.5925 25.58 -16.685 25.91 -15.75 26.25 C-10.43816204 27.80521854 -4.97979305 27.41196433 0.5 27.25 C0.17 25.93 -0.16 24.61 -0.5 23.25 C-1.71236328 23.01216797 -1.71236328 23.01216797 -2.94921875 22.76953125 C-7.77966347 21.71487444 -11.65149668 20.83742538 -15.75 18 C-18.06170632 14.36731863 -18.24315068 12.48595888 -17.5 8.25 C-13.19629938 0.82865799 -8.05466689 -0.08205094 0 0 Z " fill="#F05D27" transform="translate(59.5,43.75)"/>
<path d="M0 0 C1.37478516 0.01740234 1.37478516 0.01740234 2.77734375 0.03515625 C3.69644531 0.04417969 4.61554688 0.05320313 5.5625 0.0625 C6.27277344 0.07410156 6.98304688 0.08570313 7.71484375 0.09765625 C7.05484375 3.06765625 6.39484375 6.03765625 5.71484375 9.09765625 C8.35484375 9.09765625 10.99484375 9.09765625 13.71484375 9.09765625 C13.83984375 14.84765625 13.83984375 14.84765625 12.71484375 17.09765625 C9.74484375 17.09765625 6.77484375 17.09765625 3.71484375 17.09765625 C3.05484375 23.03765625 2.39484375 28.97765625 1.71484375 35.09765625 C4.35484375 34.76765625 6.99484375 34.43765625 9.71484375 34.09765625 C9.71484375 36.73765625 9.71484375 39.37765625 9.71484375 42.09765625 C5.48711591 44.21152017 0.29599477 43.72596325 -4.28515625 43.09765625 C-7.28121707 41.43044376 -7.66658318 40.3348024 -9.28515625 37.09765625 C-10.24196407 30.16079955 -8.1512308 23.76220821 -6.28515625 17.09765625 C-7.93515625 17.09765625 -9.58515625 17.09765625 -11.28515625 17.09765625 C-10.95515625 14.45765625 -10.62515625 11.81765625 -10.28515625 9.09765625 C-8.30515625 9.09765625 -6.32515625 9.09765625 -4.28515625 9.09765625 C-4.14078125 7.79828125 -3.99640625 6.49890625 -3.84765625 5.16015625 C-3.28992724 0.14059518 -3.28992724 0.14059518 0 0 Z " fill="#27B352" transform="translate(319.28515625,35.90234375)"/>
<path d="M0 0 C3.3 0 6.6 0 10 0 C9.35204382 8.22045608 7.90351488 16.12691395 6.1875 24.1875 C5.93935547 25.41919922 5.69121094 26.65089844 5.43554688 27.91992188 C2.51689649 41.69624875 2.51689649 41.69624875 -3.0625 46.9375 C-8.44007388 48.88257991 -14.58691015 48.80436328 -20 47 C-17.87452471 40.95057034 -17.87452471 40.95057034 -15 39 C-11.8125 38.8125 -11.8125 38.8125 -9 39 C-6.46508145 31.29099444 -4.83243398 23.53790259 -3.375 15.5625 C-2.94708113 13.25097397 -2.51747437 10.93975957 -2.0859375 8.62890625 C-1.9007959 7.61900635 -1.7156543 6.60910645 -1.52490234 5.56860352 C-1 3 -1 3 0 0 Z " fill="#F05E28" transform="translate(129,44)"/>
<path d="M0 0 C3.3 0 6.6 0 10 0 C10.33 0.66 10.66 1.32 11 2 C11.515625 1.67 12.03125 1.34 12.5625 1 C15.78026512 -0.32010877 18.5570528 -0.13242105 22 0 C21.67 2.97 21.34 5.94 21 9 C19.98679687 9.07734375 19.98679687 9.07734375 18.953125 9.15625 C14.0447255 9.78043953 11.6938649 10.11042962 8.5625 14.125 C5.97904165 20.71220661 5.11419757 28.04470607 4 35 C0.7 35 -2.6 35 -6 35 C-5.36145419 27.14662055 -4.03789164 19.58557038 -2.4375 11.875 C-2.08655273 10.15410156 -2.08655273 10.15410156 -1.72851562 8.3984375 C-1.15676376 5.5980202 -0.5805121 2.79861203 0 0 Z " fill="#F05D26" transform="translate(81,44)"/>
<path d="M0 0 C3.3 0 6.6 0 10 0 C9.36145419 7.85337945 8.03789164 15.41442962 6.4375 23.125 C6.20353516 24.27226563 5.96957031 25.41953125 5.72851562 26.6015625 C5.15676376 29.4019798 4.5805121 32.20138797 4 35 C0.7 35 -2.6 35 -6 35 C-5.36145419 27.14662055 -4.03789164 19.58557038 -2.4375 11.875 C-2.08655273 10.15410156 -2.08655273 10.15410156 -1.72851562 8.3984375 C-1.15676376 5.5980202 -0.5805121 2.79861203 0 0 Z " fill="#F05D26" transform="translate(109,44)"/>
<path d="M0 0 C3.0182722 0.05418801 4.04925828 0.22609892 6.6875 1.875 C8.77318057 5.26423093 8.66116734 7.38782775 8.1875 11.3125 C6.99624943 14.469314 6.10614736 16.59070564 3.4375 18.6875 C0.17796595 19.59292612 -2.44719519 19.67306837 -5.8125 19.3125 C-8.25 17.875 -8.25 17.875 -9.8125 15.3125 C-10.43107322 12.18462033 -10.48039127 9.43489167 -9.8125 6.3125 C-7.375 3.3125 -7.375 3.3125 -4.8125 1.3125 C-3.8125 0.3125 -3.8125 0.3125 0 0 Z " fill="#FEF9F7" transform="translate(162.8125,51.6875)"/>
<path d="M0 0 C3.69879153 1.16443437 5.24663599 1.8273867 7.375 5.0625 C8.09625695 9.47018137 7.89501338 11.32187488 5.3125 15 C2.375 17.0625 2.375 17.0625 -1.125 17.6875 C-5.58350936 16.89133761 -7.03283917 15.75436542 -9.625 12.0625 C-10.3125 8.5625 -10.3125 8.5625 -9.625 5.0625 C-6.48302168 1.38408636 -4.88568266 0.08423591 0 0 Z " fill="#141414" transform="translate(69.625,105.9375)"/>
<path d="M0 0 C2.625 1.625 2.625 1.625 4 4 C4.66974422 7.93474728 4.35110528 9.47334208 2.125 12.8125 C-0.38144907 15.39266816 -1.25461673 15.91717964 -4.8125 16.3125 C-8.91448247 15.91034486 -10.36270753 15.18026445 -13 12 C-13.58947938 8.91913605 -13.67794648 6.06770781 -13 3 C-9.86769583 -1.48329799 -4.93361876 -0.71864496 0 0 Z " fill="#111111" transform="translate(207,107)"/>
<path d="M0 0 C0.99386719 0.02707031 1.98773438 0.05414063 3.01171875 0.08203125 C4.15060547 0.13423828 4.15060547 0.13423828 5.3125 0.1875 C5.6425 1.8375 5.9725 3.4875 6.3125 5.1875 C3.3425 4.8575 0.3725 4.5275 -2.6875 4.1875 C-2.6875 5.1775 -2.6875 6.1675 -2.6875 7.1875 C-2.06101562 7.38085938 -1.43453125 7.57421875 -0.7890625 7.7734375 C0.43683594 8.16402344 0.43683594 8.16402344 1.6875 8.5625 C2.49960937 8.81773438 3.31171875 9.07296875 4.1484375 9.3359375 C6.3125 10.1875 6.3125 10.1875 8.3125 12.1875 C8.25 15.125 8.25 15.125 7.3125 18.1875 C4.42502849 20.8124741 1.97820598 21.38132228 -1.8125 21.5 C-5.6875 21.1875 -5.6875 21.1875 -8.6875 19.1875 C-8.3575 17.8675 -8.0275 16.5475 -7.6875 15.1875 C-6.6975 15.5175 -5.7075 15.8475 -4.6875 16.1875 C-2.35450175 16.22704234 -0.02041811 16.23151732 2.3125 16.1875 C2.3125 15.5275 2.3125 14.8675 2.3125 14.1875 C1.68601562 14.00574219 1.05953125 13.82398437 0.4140625 13.63671875 C-0.40320313 13.38535156 -1.22046875 13.13398437 -2.0625 12.875 C-2.87460937 12.63136719 -3.68671875 12.38773438 -4.5234375 12.13671875 C-6.6875 11.1875 -6.6875 11.1875 -8.6875 8.1875 C-9.03552076 5.4033339 -9.16792063 3.86621505 -7.5234375 1.54296875 C-4.95929707 -0.35013067 -3.14734901 -0.11108291 0 0 Z " fill="#151515" transform="translate(336.6875,101.8125)"/>
<path d="M0 0 C2.4375 1.75 2.4375 1.75 4 4 C4 5.65 4 7.3 4 9 C-1.445 9.495 -1.445 9.495 -7 10 C-5.81575674 11.41577477 -5.81575674 11.41577477 -2.4375 11.0625 C-0.7359375 11.0315625 -0.7359375 11.0315625 1 11 C1 12.32 1 13.64 1 15 C-1.85324437 16.42662219 -3.83454549 16.31033868 -7 16 C-9.69990662 14.20006226 -11.5418865 12.916227 -13 10 C-13.4375 7.1875 -13.4375 7.1875 -13 4 C-8.84273523 -0.76564498 -6.3282573 -1.99222915 0 0 Z " fill="#181818" transform="translate(141,107)"/>
<path d="M0 0 C3.98268256 1.32756085 5.28086687 2.52309101 7.375 6.125 C7.375 7.445 7.375 8.765 7.375 10.125 C3.415 10.125 -0.545 10.125 -4.625 10.125 C-4.625 10.785 -4.625 11.445 -4.625 12.125 C-1.655 12.125 1.315 12.125 4.375 12.125 C4.375 13.445 4.375 14.765 4.375 16.125 C1.47204195 17.57647903 -0.39761779 17.49739025 -3.625 17.125 C-7 15.0625 -7 15.0625 -9.625 12.125 C-10.375 8.625 -10.375 8.625 -9.625 5.125 C-6.49148819 1.45649837 -4.86447322 0.16774046 0 0 Z " fill="#171717" transform="translate(400.625,105.875)"/>
<path d="M0 0 C2.5 1.6875 2.5 1.6875 4 4 C4 5.65 4 7.3 4 9 C0.37 9 -3.26 9 -7 9 C-6.67 9.66 -6.34 10.32 -6 11 C-3.36 11 -0.72 11 2 11 C2 12.32 2 13.64 2 15 C-1.13871188 16.56935594 -3.53855822 16.35201103 -7 16 C-9.9375 13.9375 -9.9375 13.9375 -12 11 C-12.62491523 7.04220351 -12.61006839 4.99136114 -10.5 1.5625 C-6.98735787 -0.63290133 -4.0370508 -0.81899186 0 0 Z " fill="#161616" transform="translate(266,107)"/>
<path d="M0 0 C0.87527344 -0.01417969 1.75054687 -0.02835937 2.65234375 -0.04296875 C5.0625 0.1875 5.0625 0.1875 8.0625 2.1875 C7.4025 3.5075 6.7425 4.8275 6.0625 6.1875 C5.4025 5.8575 4.7425 5.5275 4.0625 5.1875 C0.5625 4.9375 0.5625 4.9375 -2.9375 5.1875 C-5.23577312 7.06688172 -5.23577312 7.06688172 -5.25 10.125 C-5.17446753 13.12204195 -5.17446753 13.12204195 -3.75 15.0625 C-0.7043022 16.95293312 1.98490653 16.42049318 5.375 15.6875 C5.931875 15.5225 6.48875 15.3575 7.0625 15.1875 C7.0625 16.5075 7.0625 17.8275 7.0625 19.1875 C3.37001438 21.64915708 0.34738597 21.99596905 -3.9375 21.1875 C-7.46238367 19.22082671 -9.63871477 17.08385569 -10.9375 13.1875 C-11.32637761 8.98762182 -11.39658323 6.89142762 -9.0625 3.3125 C-5.97575487 0.22575487 -4.25684988 0.0312544 0 0 Z " fill="#131313" transform="translate(182.9375,101.8125)"/>
<path d="M0 0 C1.60332791 -0.08121924 3.20784026 -0.13929134 4.8125 -0.1875 C6.15248047 -0.23970703 6.15248047 -0.23970703 7.51953125 -0.29296875 C10 0 10 0 11.8125 1.09375 C13.59483911 3.9548733 13.28638532 6.35836104 13.1875 9.6875 C13.16042969 10.86699219 13.13335937 12.04648438 13.10546875 13.26171875 C13.07066406 14.16535156 13.03585938 15.06898437 13 16 C12.195625 15.814375 11.39125 15.62875 10.5625 15.4375 C9.716875 15.293125 8.87125 15.14875 8 15 C7.67 15.33 7.34 15.66 7 16 C1.74549098 16.45691383 1.74549098 16.45691383 -0.9375 14.8125 C-2 13 -2 13 -1.8125 10.4375 C-1 8 -1 8 1 6 C4.625 5.875 4.625 5.875 8 6 C7.67 5.34 7.34 4.68 7 4 C4.69 4 2.38 4 0 4 C0 2.68 0 1.36 0 0 Z " fill="#080808" transform="translate(99,107)"/>
<path d="M0 0 C1.60332791 -0.08121924 3.20784026 -0.13929134 4.8125 -0.1875 C6.15248047 -0.23970703 6.15248047 -0.23970703 7.51953125 -0.29296875 C10 0 10 0 11.8125 1.125 C13.53655061 3.84718517 13.29030574 6.00052205 13.1875 9.1875 C13.16042969 10.27417969 13.13335937 11.36085938 13.10546875 12.48046875 C13.07066406 13.31191406 13.03585937 14.14335938 13 15 C12.195625 14.979375 11.39125 14.95875 10.5625 14.9375 C8.06645115 14.70366379 8.06645115 14.70366379 7 16 C1.74549098 16.45691383 1.74549098 16.45691383 -0.9375 14.8125 C-2 13 -2 13 -1.8125 10.4375 C-1 8 -1 8 1 6 C4.625 5.875 4.625 5.875 8 6 C7.67 5.34 7.34 4.68 7 4 C4.69 4 2.38 4 0 4 C0 2.68 0 1.36 0 0 Z " fill="#0A0A0A" transform="translate(366,107)"/>
<path d="M0 0 C1.65 0 3.3 0 5 0 C5.33 0.33 5.66 0.66 6 1 C7.998569 0.90329505 9.99754768 0.80277758 11.9921875 0.64453125 C14 1 14 1 15.74609375 2.62109375 C17.35359803 5.67084486 17.2992938 7.82165678 17.1875 11.25 C17.16042969 12.32765625 17.13335937 13.4053125 17.10546875 14.515625 C17.07066406 15.33546875 17.03585938 16.1553125 17 17 C15.35 17 13.7 17 12 17 C11.67 13.37 11.34 9.74 11 6 C9.68 5.67 8.36 5.34 7 5 C5.26043342 6.73956658 5.62809614 9.1936622 5.4375 11.5625 C5.35371094 12.57441406 5.26992187 13.58632812 5.18359375 14.62890625 C5.12300781 15.41136719 5.06242188 16.19382812 5 17 C3.35 17 1.7 17 0 17 C0 11.39 0 5.78 0 0 Z " fill="#1A1A1A" transform="translate(234,106)"/>
<path d="M0 0 C1.65 0 3.3 0 5 0 C5.33 0.33 5.66 0.66 6 1 C7.998569 0.90329505 9.99754768 0.80277758 11.9921875 0.64453125 C14 1 14 1 15.74609375 2.62109375 C17.35359803 5.67084486 17.2992938 7.82165678 17.1875 11.25 C17.16042969 12.32765625 17.13335937 13.4053125 17.10546875 14.515625 C17.07066406 15.33546875 17.03585938 16.1553125 17 17 C15.35 17 13.7 17 12 17 C11.67 13.37 11.34 9.74 11 6 C9.68 5.67 8.36 5.34 7 5 C5.26043342 6.73956658 5.62809614 9.1936622 5.4375 11.5625 C5.35371094 12.57441406 5.26992188 13.58632812 5.18359375 14.62890625 C5.12300781 15.41136719 5.06242187 16.19382812 5 17 C3.35 17 1.7 17 0 17 C0 11.39 0 5.78 0 0 Z " fill="#1A1A1A" transform="translate(20,106)"/>
<path d="M0 0 C2.6875 0.3125 2.6875 0.3125 4.83984375 1.91015625 C7.29978062 5.10859425 7.09688699 7.07782536 6.9375 11.0625 C6.90140625 12.23296875 6.8653125 13.4034375 6.828125 14.609375 C6.75851563 15.94742188 6.75851563 15.94742188 6.6875 17.3125 C5.0375 16.9825 3.3875 16.6525 1.6875 16.3125 C1.3575 12.6825 1.0275 9.0525 0.6875 5.3125 C-0.6325 5.6425 -1.9525 5.9725 -3.3125 6.3125 C-3.6425 9.6125 -3.9725 12.9125 -4.3125 16.3125 C-5.9625 16.6425 -7.6125 16.9725 -9.3125 17.3125 C-9.3125 12.0325 -9.3125 6.7525 -9.3125 1.3125 C-7.3325 1.3125 -5.3525 1.3125 -3.3125 1.3125 C-2.3125 0.3125 -2.3125 0.3125 0 0 Z " fill="#1B1B1B" transform="translate(223.3125,105.6875)"/>
<path d="M0 0 C2.12890625 1.59765625 2.12890625 1.59765625 4 4 C4.390625 7.234375 4.390625 7.234375 4.25 10.75 C4.21390625 11.92046875 4.1778125 13.0909375 4.140625 14.296875 C4.07101563 15.63492188 4.07101563 15.63492188 4 17 C2.35 17 0.7 17 -1 17 C-1 13.04 -1 9.08 -1 5 C-2.98 5.33 -4.96 5.66 -7 6 C-7.33 9.63 -7.66 13.26 -8 17 C-9.32 17 -10.64 17 -12 17 C-12 11.72 -12 6.44 -12 1 C-2.56944444 -0.34722222 -2.56944444 -0.34722222 0 0 Z " fill="#171717" transform="translate(53,106)"/>
<path d="M0 0 C2.12109375 0.37109375 2.12109375 0.37109375 5.12109375 2.37109375 C5.12109375 3.03109375 5.12109375 3.69109375 5.12109375 4.37109375 C1.77005938 5.48810521 -0.46895386 5.10838075 -3.87890625 4.37109375 C-5.17524246 5.4375449 -5.17524246 5.4375449 -4.94140625 7.93359375 C-4.92078125 8.73796875 -4.90015625 9.54234375 -4.87890625 10.37109375 C-1.59194392 11.17062513 -0.16867433 11.46768311 3.12109375 10.37109375 C3.78109375 10.70109375 4.44109375 11.03109375 5.12109375 11.37109375 C3.37109375 15.24609375 3.37109375 15.24609375 1.12109375 16.37109375 C-2.55277157 16.77930101 -4.43176762 16.6195041 -7.69140625 14.80859375 C-10.56990356 11.60112532 -10.95408286 9.65616035 -10.87890625 5.37109375 C-8.37262997 0.01677624 -5.40948684 -0.15507804 0 0 Z " fill="#141414" transform="translate(282.87890625,106.62890625)"/>
<path d="M0 0 C0.66 1.32 1.32 2.64 2 4 C-1.35103437 5.11701146 -3.59004761 4.737287 -7 4 C-8.29633621 5.06645115 -8.29633621 5.06645115 -8.0625 7.5625 C-8.041875 8.366875 -8.02125 9.17125 -8 10 C-4.71303767 10.79953138 -3.28976808 11.09658936 0 10 C0.66 10.33 1.32 10.66 2 11 C0.25 14.875 0.25 14.875 -2 16 C-5.61726636 16.40191848 -7.59782296 16.20108852 -10.875 14.5625 C-13.58772973 11.29126709 -13.67955809 9.21678301 -13.40625 5.0625 C-13 3 -13 3 -11.5625 0.9375 C-7.72655847 -0.46589324 -4.03929179 -0.23303606 0 0 Z " fill="#111111" transform="translate(360,107)"/>
<path d="M0 0 C2.3125 0.0625 2.3125 0.0625 5 1 C6.8125 4.5625 6.8125 4.5625 8 8 C9.32 5.36 10.64 2.72 12 0 C13.65 0 15.3 0 17 0 C15.02 5.28 13.04 10.56 11 16 C9.35 16 7.7 16 6 16 C4.99303432 13.89915791 3.9946411 11.79420511 3 9.6875 C2.443125 8.51574219 1.88625 7.34398438 1.3125 6.13671875 C0 3 0 3 0 0 Z " fill="#151515" transform="translate(79,107)"/>
<path d="M0 0 C1.65 0 3.3 0 5 0 C5 1.32 5 2.64 5 4 C6.32 4 7.64 4 9 4 C9 5.32 9 6.64 9 8 C7.68 8 6.36 8 5 8 C5 10.64 5 13.28 5 16 C6.65 16.33 8.3 16.66 10 17 C9.67 17.99 9.34 18.98 9 20 C3.62337662 20.47792208 3.62337662 20.47792208 1.125 18.5625 C-0.5494151 14.74855449 -0.23678107 11.10420515 0 7 C-0.66 7 -1.32 7 -2 7 C-2 6.01 -2 5.02 -2 4 C-1.34 4 -0.68 4 0 4 C0 2.68 0 1.36 0 0 Z " fill="#1A1A1A" transform="translate(291,103)"/>
<path d="M0 0 C1.875 1.0625 1.875 1.0625 3 3 C3.63316583 8.90954774 3.63316583 8.90954774 1.875 11.9375 C-0.88980433 13.50422245 -2.88188517 13.38976435 -6 13 C-7.875 11.9375 -7.875 11.9375 -9 10 C-9.63316583 4.09045226 -9.63316583 4.09045226 -7.875 1.0625 C-5.11019567 -0.50422245 -3.11811483 -0.38976435 0 0 Z " fill="#F0612B" transform="translate(315,107)"/>
<path d="M0 0 C1.875 1.0625 1.875 1.0625 3 3 C3.63316583 8.90954774 3.63316583 8.90954774 1.875 11.9375 C-0.88980433 13.50422245 -2.88188517 13.38976435 -6 13 C-7.875 11.9375 -7.875 11.9375 -9 10 C-9.63316583 4.09045226 -9.63316583 4.09045226 -7.875 1.0625 C-5.11019567 -0.50422245 -3.11811483 -0.38976435 0 0 Z " fill="#F05D26" transform="translate(159,107)"/>
<path d="M0 0 C1.65 0 3.3 0 5 0 C5 1.32 5 2.64 5 4 C5.99 4 6.98 4 8 4 C8 4.99 8 5.98 8 7 C7.01 7 6.02 7 5 7 C5 9.97 5 12.94 5 16 C6.32 16 7.64 16 9 16 C8.67 17.32 8.34 18.64 8 20 C3.50798722 20.36421725 3.50798722 20.36421725 1.34375 18.8125 C-0.46278055 16.37578437 -0.30430752 14.81055979 -0.1875 11.8125 C-0.16042969 10.91144531 -0.13335937 10.01039062 -0.10546875 9.08203125 C-0.07066406 8.39496094 -0.03585938 7.70789063 0 7 C-0.66 7 -1.32 7 -2 7 C-2 6.01 -2 5.02 -2 4 C-1.34 4 -0.68 4 0 4 C0 2.68 0 1.36 0 0 Z " fill="#141414" transform="translate(117,103)"/>
<path d="M0 0 C2 1.125 2 1.125 3 3 C2.875 6.0625 2.875 6.0625 2 9 C-1.46923881 11.31282587 -2.92205575 11.42478586 -7 11 C-8.875 9.8125 -8.875 9.8125 -10 8 C-10.42317323 5.17884512 -10.38718434 3.66049093 -8.9375 1.1875 C-5.90624457 -0.67036623 -3.46577141 -0.37133265 0 0 Z " fill="#F0612C" transform="translate(140,28)"/>
<path d="M0 0 C1.875 1.1875 1.875 1.1875 3 3 C3.4375 5.5 3.4375 5.5 3 8 C0.72733157 10.5348994 -0.67674876 10.96041822 -4.0625 11.375 C-7 11 -7 11 -8.9375 9.875 C-10 8 -10 8 -9.875 4.9375 C-8.30264592 -0.34111726 -4.95749687 -0.51640592 0 0 Z " fill="#F0612B" transform="translate(120,28)"/>
<path d="M0 0 C1.65 0 3.3 0 5 0 C5 7.59 5 15.18 5 23 C3.35 23 1.7 23 0 23 C0 15.41 0 7.82 0 0 Z " fill="#222222" transform="translate(383,100)"/>
<path d="M0 0 C1.65 0 3.3 0 5 0 C5 6.93 5 13.86 5 21 C3.35 21 1.7 21 0 21 C0 14.07 0 7.14 0 0 Z " fill="#171717" transform="translate(11,102)"/>
<path d="M0 0 C0.93423645 3.01031744 1.04449911 3.86650268 0 7 C0.66 7.33 1.32 7.66 2 8 C2 8.66 2 9.32 2 10 C2.99 10.33 3.98 10.66 5 11 C4.195625 10.814375 3.39125 10.62875 2.5625 10.4375 C1.716875 10.293125 0.87125 10.14875 0 10 C-0.33 10.33 -0.66 10.66 -1 11 C-6.25450902 11.45691383 -6.25450902 11.45691383 -8.9375 9.8125 C-10 8 -10 8 -9.8125 5.4375 C-9 3 -9 3 -7 1 C-4.67724823 0.59952556 -2.34260643 0.2602896 0 0 Z " fill="#262626" transform="translate(107,112)"/>
<path d="M0 0 C5 0 5 0 8 2 C7.52433594 2.81210938 7.52433594 2.81210938 7.0390625 3.640625 C5.81692026 6.4157149 5.59056564 8.73208098 5.375 11.75 C5.30023438 12.73484375 5.22546875 13.7196875 5.1484375 14.734375 C5.09945312 15.48203125 5.05046875 16.2296875 5 17 C3.35 17 1.7 17 0 17 C0 11.39 0 5.78 0 0 Z " fill="#252525" transform="translate(234,106)"/>
<path d="M0 0 C5 0 5 0 8 2 C7.52433594 2.81210938 7.52433594 2.81210938 7.0390625 3.640625 C5.81692026 6.4157149 5.59056564 8.73208098 5.375 11.75 C5.30023437 12.73484375 5.22546875 13.7196875 5.1484375 14.734375 C5.09945313 15.48203125 5.05046875 16.2296875 5 17 C3.35 17 1.7 17 0 17 C0 11.39 0 5.78 0 0 Z " fill="#252525" transform="translate(20,106)"/>
<path d="M0 0 C2.4375 1.25 2.4375 1.25 4 3 C4 4.32 4 5.64 4 7 C-1.28 7 -6.56 7 -12 7 C-9.24686994 0.11717484 -7.11396363 -0.6240319 0 0 Z " fill="#F3FBF5" transform="translate(290,51)"/>
<path d="M0 0 C0 3.74161103 -0.51338171 7.28953557 -1 11 C-6.41139241 11.36075949 -6.41139241 11.36075949 -8.9375 9.8125 C-10 8 -10 8 -9.8125 5.4375 C-9 3 -9 3 -7 1 C-4.67724823 0.59952556 -2.34260643 0.2602896 0 0 Z " fill="#4B4B4B" transform="translate(374,112)"/>
<path d="M0 0 C4.55555556 0.55555556 4.55555556 0.55555556 6 2 C6.1875 4.4375 6.1875 4.4375 6 7 C5.34 7.66 4.68 8.32 4 9 C-0.55555556 8.44444444 -0.55555556 8.44444444 -2 7 C-2.1875 4.5625 -2.1875 4.5625 -2 2 C-1.34 1.34 -0.68 0.68 0 0 Z " fill="#E9E9E9" transform="translate(200,110)"/>
<path d="M0 0 C4.55555556 0.55555556 4.55555556 0.55555556 6 2 C6.1875 4.4375 6.1875 4.4375 6 7 C5.34 7.66 4.68 8.32 4 9 C-0.55555556 8.44444444 -0.55555556 8.44444444 -2 7 C-2.1875 4.5625 -2.1875 4.5625 -2 2 C-1.34 1.34 -0.68 0.68 0 0 Z " fill="#E6E6E6" transform="translate(67,110)"/>
<path d="M0 0 C2.64 0 5.28 0 8 0 C8.33 0.99 8.66 1.98 9 3 C6.36 3.33 3.72 3.66 1 4 C0.67 2.68 0.34 1.36 0 0 Z " fill="#E8E8E8" transform="translate(365,110)"/>
<path d="M0 0 C2.97 0 5.94 0 9 0 C9 0.66 9 1.32 9 2 C6.36 2.33 3.72 2.66 1 3 C0.67 2.01 0.34 1.02 0 0 Z " fill="#EDEDED" transform="translate(259,116)"/>
<path d="M0 0 C2.64 0 5.28 0 8 0 C8.33 0.66 8.66 1.32 9 2 C6.69 2.33 4.38 2.66 2 3 C1.34 2.01 0.68 1.02 0 0 Z " fill="#EDEDED" transform="translate(133,116)"/>
<path d="M0 0 C1.98 0 3.96 0 6 0 C5.34 1.32 4.68 2.64 4 4 C2.68 3.67 1.36 3.34 0 3 C0 2.01 0 1.02 0 0 Z " fill="#D9D9D9" transform="translate(102,116)"/>
<path d="M0 0 C1.65 0 3.3 0 5 0 C5.33 0.99 5.66 1.98 6 3 C3.69 3 1.38 3 -1 3 C-0.67 2.01 -0.34 1.02 0 0 Z " fill="#E9E9E9" transform="translate(397,110)"/>
<path d="M0 0 C1.65 0 3.3 0 5 0 C5.33 0.99 5.66 1.98 6 3 C3.69 3 1.38 3 -1 3 C-0.67 2.01 -0.34 1.02 0 0 Z " fill="#E9E9E9" transform="translate(134,110)"/>
<path d="M0 0 C2.4375 0.375 2.4375 0.375 5 1 C5.33 1.66 5.66 2.32 6 3 C3.36 3 0.72 3 -2 3 C-1.34 2.01 -0.68 1.02 0 0 Z " fill="#EFEFEF" transform="translate(260,110)"/>
<path d="M0 0 C0.94875 0.04125 1.8975 0.0825 2.875 0.125 C2.875 0.455 2.875 0.785 2.875 1.125 C1.225 1.125 -0.425 1.125 -2.125 1.125 C-2.41375 1.74375 -2.7025 2.3625 -3 3 C-4.125 5.125 -4.125 5.125 -6.125 7.125 C-5.03177966 0.20127119 -5.03177966 0.20127119 0 0 Z " fill="#F2794B" transform="translate(156.125,106.875)"/>
</svg>
